<svg xmlns="http://www.w3.org/2000/svg"
    viewBox="-9821.3135 -5983.9615 19638.6315 19961.4108" preserveAspectRatio="xMidYMid meet">
    <path
        stroke="black"
        stroke-width="760"
        fill="#fff"
        d="M 2053.3410 -4228.7643 C 460.1721 -3922.2049 -659.9452 -3961.0452 -2051.2636 -4228.7643 C -5216.3739 -4876.2181 -5805.4533 -1932.8258 -6537.6676 -543.8151 C -8274.7442 3169.5584 -3420.1768 3623.6987 1.0387 3623.6987 C 3307.1572 3623.6987 8276.8216 3169.5584 6539.7450 -543.8151 C 5807.5308 -1932.8258 5218.4514 -4876.2181 2053.3410 -4228.7643 Z "></path>

    <circle fill="#fff"
        stroke="#e6b52e" stroke-width="1050" r="2100" cx="2430" cy="-1100"></circle>
    <circle fill="#fff"
        stroke="#e6b52e" stroke-width="1050" r="2100" cx="-2430" cy="-1100"></circle>

    <circle fill="black" r="800" cx="2430" cy="-1100"></circle>
    <circle fill="black" r="800" cx="-2430" cy="-1100"></circle>

    <path fill="rgb(140,45,45)"
        stroke="rgb(140,45,45)"
        stroke-width="200"
        d="M 236.9731 883.6829 C 171.2612 798.7562 318.0682 -30.0947 747.2788 -33.9317 C 1186.3792 -37.8174 1350.5473 860.7228 1293.1873 883.6829 C 1232.5989 961.9433 1051.8800 305.0869 747.2788 301.1971 C 486.1922 297.2297 300.7885 966.1588 236.9731 883.6829 Z "></path>
    <path fill="rgb(140,45,45)"
        stroke="rgb(140,45,45)"
        stroke-width="200"
        d="M -240.9687 883.6829 C -175.2568 798.7562 -322.0638 -30.0947 -751.2744 -33.9317 C -1190.3748 -37.8174 -1354.5429 860.7228 -1297.1829 883.6829 C -1236.5945 961.9433 -1055.8756 305.0869 -751.2744 301.1971 C -490.1878 297.2297 -304.7841 966.1588 -240.9687 883.6829 Z "></path>
    <path fill="rgb(140,45,45)"
        stroke="rgb(140,45,45)"
        stroke-width="300"
        d="M 1666.2856 1757.4375 C 210.2783 1387.0202 -214.2739 1384.6905 -1670.2812 1757.4375 C -2234.7621 1920.8054 -2387.3097 2596.5719 -2974.4680 2456.0864 C -3286.8125 2381.3537 -3812.8057 1877.9183 -3452.8503 1722.7621 C -3054.2325 1578.9861 -3298.6178 2103.1758 -2783.2031 2185.4597 C -2407.2060 2196.5006 -2369.9080 1709.8901 -1881.9328 1578.8286 C -451.6126 1212.4460 470.8612 1218.4001 1877.9372 1578.8286 C 2386.5838 1709.8901 2403.2104 2196.5006 2779.2075 2185.4597 C 3294.6222 2103.1758 3050.2369 1578.9861 3448.8547 1722.7621 C 3808.8101 1877.9183 3282.8169 2381.3537 2970.4724 2456.0864 C 2383.3141 2596.5719 2230.7665 1920.8054 1666.2856 1757.4375 Z "></path>

    <path fill="black"
        d="M 1635.0675 732.2662 C 2000.9358 518.4603 3992.5601 1266.5870 4894.1229 732.2662 C 5428.8606 382.2451 4221.9584 -184.1636 4282.3029 -292.5757 C 4444.7557 -292.5757 5571.5977 152.1506 5790.9296 716.0553 C 6031.4777 1334.5071 5648.2841 1719.3875 5090.7467 1863.1533 C 4345.8235 2070.7565 3222.6836 1047.8843 1635.0675 732.2662 Z "></path>
    <path fill="black"
        d="M 737.8112 1915.6067 C 812.1356 1878.9066 1212.5766 2345.6865 1275.8342 2527.4924 C 1381.3968 2830.8856 1023.8938 2997.1115 769.9516 2703.5092 C 587.6436 2496.4537 659.5344 1954.2585 737.8112 1915.6067 Z "></path>
    <path fill="black"
        d="M 386.2332 -2601.2885 C 304.0293 -2634.4024 327.1248 -3194.7042 406.5566 -3345.3218 C 539.1104 -3596.6685 927.2890 -3431.4684 914.3322 -3077.5340 C 907.6425 -2825.5812 472.8085 -2566.4137 386.2332 -2601.2885 Z "></path>
    <path fill="black"
        d="M -1.9978 1760.8660 C -62.0914 1768.3418 -363.9357 2462.8626 -294.9688 2769.7313 C -210.9628 2983.4799 -36.5609 3010.1065 -1.9978 3010.1065 C 32.5653 3010.1065 204.0432 2990.9197 290.9732 2769.7313 C 391.8418 2466.0426 58.0958 1768.3418 -1.9978 1760.8660 Z "></path>
    <path fill="black"
        d="M -390.2287 -2601.2885 C -308.0249 -2634.4024 -331.1204 -3194.7042 -410.5522 -3345.3218 C -543.1060 -3596.6685 -931.2846 -3431.4684 -918.3278 -3077.5340 C -911.6381 -2825.5812 -476.8041 -2566.4137 -390.2287 -2601.2885 Z "></path>
    <path fill="black"
        d="M -1639.0631 732.2662 C -2004.9314 518.4603 -3996.5557 1266.5870 -4898.1185 732.2662 C -5432.8562 382.2451 -4225.9540 -184.1636 -4286.2985 -292.5757 C -4448.7513 -292.5757 -5575.5933 152.1506 -5794.9252 716.0553 C -6035.4733 1334.5071 -5652.2797 1719.3875 -5094.7423 1863.1533 C -4349.8191 2070.7565 -3226.6792 1047.8843 -1639.0631 732.2662 Z "></path>
    <path fill="black"
        d="M -741.8068 1915.6067 C -816.1312 1878.9066 -1216.5722 2345.6865 -1279.8298 2527.4924 C -1385.3924 2830.8856 -1027.8894 2997.1115 -773.9472 2703.5092 C -591.6391 2496.4537 -663.5300 1954.2585 -741.8068 1915.6067 Z "></path>

    <path fill="black"
        stroke="black"
        stroke-width="180"
        d="
        M 533.9062 -2250.5849 C 1484.7138 -2553.6036 1789.0664 -3224.4703 2319.2526 -3429.4587 C 2998.9105 -3668.3958 3461.6832 -3518.8204 3933.7086 -3152.5346 C 4457.2936 -2721.9203 4207.4848 -1896.9221 4188.5910 -1730.9344 C 3961.7620 -2123.1689 3886.2532 -2657.8965 3111.2335 -2881.6561 C 2310.8333 -3104.8214 1146.7683 -2181.0954 533.9062 -2250.5849 
        M -537.9018 -2250.5849 C -1488.7094 -2553.6036 -1793.0619 -3224.4703 -2323.2482 -3429.4587 C -3002.9061 -3668.3958 -3465.6788 -3518.8204 -3937.7042 -3152.5346 C -4461.2892 -2721.9203 -4211.4804 -1896.9221 -4192.5866 -1730.9344 C -3965.7576 -2123.1689 -3890.2488 -2657.8965 -3115.2291 -2881.6561 C -2314.8289 -3104.8214 -1150.7639 -2181.0954 -537.9018 -2250.5849 
        "></path>


    <path fill="#e6b52e"
        d="
        M -4740.9987 12309.4145 C -4449.2155 12226.8054 -5237.2160 10214.7402 -4991.5157 7505.4731 C -4593.7153 5030.4281 -5745.0564 4303.2442 -5950.9168 6599.4363 C -6372.1172 9547.8395 -5104.0979 12369.1712 -4740.9987 12309.4145 Z
        M -7002.7533 12066.7935 C -6705.7496 11995.9903 -7668.6420 8102.3226 -6976.5817 6515.2877 C -6133.9900 4432.6360 -7439.6138 4155.2606 -7803.9633 5738.0864 C -8880.8845 9615.4258 -7369.2883 12107.8069 -7002.7533 12066.7935 Z
        M -2568.3023 12313.1420 C -2276.4251 12238.1709 -3062.0220 10421.5235 -2813.1044 7973.8350 C -2412.3672 5737.5484 -3562.8269 5082.0210 -3771.4142 7156.5139 C -4196.1138 9820.4329 -2931.4673 12367.5545 -2568.3023 12313.1420 Z
        M 4737.0031 12309.4145 C 4445.2199 12226.8054 5233.2204 10214.7402 4987.5201 7505.4731 C 4589.7197 5030.4281 5741.0608 4303.2442 5946.9212 6599.4363 C 6368.1217 9547.8395 5100.1023 12369.1712 4737.0031 12309.4145 Z
        M 6998.7577 12066.7935 C 6701.7540 11995.9903 7664.6464 8102.3226 6972.5861 6515.2877 C 6129.9944 4432.6360 7435.6182 4155.2606 7799.9677 5738.0864 C 8876.8889 9615.4258 7365.2927 12107.8069 6998.7577 12066.7935 Z
        M 2564.3068 12313.1420 C 2272.4295 12238.1709 3058.0265 10421.5235 2809.1088 7973.8350 C 2408.3716 5737.5484 3558.8313 5082.0210 3767.4186 7156.5139 C 4192.1182 9820.4329 2927.4717 12367.5545 2564.3068 12313.1420 Z
        
        "></path>
</svg>